<svg version="1.1" id="Layer_1" xmlns="http://www.w3.org/2000/svg" xmlns:xlink="http://www.w3.org/1999/xlink" x="0px" y="0px"
	 viewBox="0 0 13.418 12.014" enable-background="new 0 0 13.418 12.014" xml:space="preserve">
<g>
	<path fill="#FFFFFF" d="M10.644,10.883l-3.552,0.391L5.625,8.742L5.288,8.049l7.17-6.709L10.644,10.883z M4.791,7.801
		c-0.008,0.008-0.006,0.02-0.006,0.02C4.76,7.852,4.738,7.869,4.727,7.896l-0.509,1.29l0.058-1.519l4.107-3.228L4.791,7.801z
		 M4.995,8.638l0.23,0.474L4.556,9.751L4.995,8.638z M0.79,6.916L1.123,4.58l10.375-3.251l-7.54,5.925L0.79,6.916z M0.498,4.049
		L0,7.529l3.572,0.383l-0.149,3.88l2.04-1.946l1.256,2.168l4.512-0.498L13.419,0L0.498,4.049z"/>
</g>
</svg>
